<svg xmlns="http://www.w3.org/2000/svg" viewBox="0 0 50 50"><path fill="#01a093" d="M25 48c-0.3-1.1-0.5-2.3-0.8-3.4c-0.9-3.5-2-7-3.5-10.3c-0.9-2.1-2.2-4-3.4-5.8c-1.4-2.1-2.9-4.3-4.3-6.5 c-1.5-2.6-2.3-5.4-2.1-8.4c0.2-3 1.3-5.6 3.2-7.9c2.1-2.5 4.7-4.1 7.7-4.8c4.8-1 9.2 0.1 12.8 3.5c2.4 2.2 3.8 4.9 4.3 8.1 c0.4 2.7 0 5.4-1.2 7.9c-1 2.2-2.4 4.2-3.8 6.2c-1.5 2.1-3 4.3-4.2 6.6c-1.2 2.3-2.1 4.7-2.8 7.2c-0.7 2.4-1.3 4.8-1.9 7.2 C25.2 47.7 25.1 47.8 25 48C25.1 48 25 48 25 48z"/><path fill="#e4f4f3" d="M31.3 13.8C31.2 17.3 28.5 20 25 20c-3.6 0-6.3-2.8-6.3-6.3c0-3.6 3-6.3 6.4-6.2C28.4 7.6 31.2 10.2 31.3 13.8z"/></svg>